<!DOCTYPE svg PUBLIC "-//W3C//DTD SVG 20010904//EN" "http://www.w3.org/TR/2001/REC-SVG-20010904/DTD/svg10.dtd">
<svg version="1.0" xmlns="http://www.w3.org/2000/svg" width="1000px" height="755px" viewBox="0 0 10000 7550" preserveAspectRatio="xMidYMid meet">
<g id="layer101" fill="#353b60" stroke="none">
 <path d="M4725 7174 c-16 -2 -70 -9 -120 -15 -705 -86 -1407 -463 -1877 -1007 -404 -466 -640 -992 -724 -1612 -24 -173 -24 -566 -1 -743 91 -682 388 -1289 862 -1762 575 -573 1327 -885 2135 -885 1431 0 2661 999 2954 2398 47 224 60 359 60 622 0 263 -12 386 -61 620 -150 728 -583 1390 -1198 1832 -388 278 -816 451 -1323 534 -92 15 -627 29 -707 18z"/>
 </g>
<g id="layer102" fill="#fdfdfd" stroke="none">
 <path d="M4720 6899 c-827 -91 -1550 -532 -2012 -1224 -97 -146 -242 -438 -298 -600 -107 -311 -150 -571 -151 -909 0 -441 84 -808 276 -1201 136 -279 302 -512 525 -735 467 -467 1063 -744 1723 -799 304 -26 589 -1 902 79 470 119 903 368 1255 720 357 358 604 794 724 1280 157 639 84 1291 -210 1881 -277 553 -719 987 -1279 1255 -251 119 -487 191 -794 240 -115 19 -536 27 -661 13z m590 -174 c462 -57 920 -248 1283 -534 l69 -54 -85 -85 -85 -85 -59 46 c-341 262 -774 435 -1200 478 -159 17 -469 6 -623 -21 -370 -65 -710 -212 -1015 -439 -131 -98 -361 -329 -461 -463 -230 -309 -372 -641 -441 -1033 -14 -79 -18 -157 -18 -370 0 -236 3 -285 22 -390 103 -557 387 -1051 804 -1397 337 -280 728 -455 1169 -524 159 -25 499 -26 660 -1 356 55 685 183 971 376 74 50 146 101 162 113 l28 22 85 -85 85 -85 -108 -81 c-375 -279 -766 -439 -1233 -505 -125 -17 -515 -17 -640 0 -233 33 -448 90 -662 178 -563 229 -1044 675 -1319 1224 -340 678 -366 1458 -73 2159 198 472 566 904 1009 1182 310 195 678 326 1045 373 148 19 477 19 630 1z m-60 -439 c448 -56 846 -236 1173 -529 l79 -70 146 146 c81 81 150 150 155 154 11 10 106 -86 200 -202 639 -790 754 -1866 296 -2779 -105 -209 -332 -525 -463 -646 l-27 -24 -153 153 -154 154 -108 -93 c-314 -267 -668 -429 -1087 -497 -142 -23 -475 -22 -612 1 -475 80 -846 263 -1169 576 -190 185 -313 348 -426 570 -101 198 -164 387 -207 620 -25 138 -25 555 0 690 72 381 193 658 416 954 335 444 870 751 1431 821 143 18 372 18 510 1z"/>
 <path d="M5070 6040 c0 -114 -10 -104 120 -115 300 -23 657 -170 919 -378 l64 -51 63 70 c35 38 63 72 64 76 0 4 -28 31 -62 59 -161 134 -406 267 -626 339 -127 42 -343 85 -469 94 l-73 5 0 -99z"/>
 <path d="M4638 6104 c-613 -116 -1132 -511 -1405 -1069 -327 -670 -256 -1444 189 -2048 128 -174 377 -399 563 -509 353 -210 740 -303 1148 -277 72 5 144 11 160 15 l27 6 0 183 0 184 43 11 c215 54 432 154 588 272 110 83 169 134 169 145 0 5 -87 96 -194 202 -222 222 -182 207 -306 111 -112 -87 -287 -162 -441 -190 -92 -17 -290 -14 -384 5 -111 23 -240 73 -336 131 -95 57 -221 172 -289 261 -93 123 -169 297 -194 446 l-13 72 -77 -3 c-42 -2 -87 -7 -100 -10 l-23 -7 14 -80 c67 -406 342 -760 719 -925 369 -162 789 -137 1137 67 l79 46 54 -54 c30 -29 54 -56 54 -60 0 -10 -113 -80 -199 -123 -96 -49 -254 -101 -366 -121 -49 -8 -100 -18 -112 -21 -23 -4 -23 -6 -23 -186 l0 -181 -182 6 c-208 7 -314 25 -499 87 -851 283 -1357 1169 -1168 2045 133 620 602 1135 1199 1318 63 20 127 38 143 41 l27 6 0 -83 0 -83 -67 -18 c-183 -48 -377 -144 -539 -267 -110 -83 -267 -245 -348 -357 -147 -207 -259 -505 -282 -751 l-7 -71 281 0 282 0 4 23 c49 256 126 420 271 574 43 47 109 108 145 135 89 68 245 143 365 175 88 23 119 26 255 26 136 0 167 -3 255 -26 131 -35 279 -108 389 -192 l89 -67 193 193 c106 107 194 199 194 204 0 15 -137 128 -233 192 -214 144 -482 238 -734 259 l-83 7 0 -92 c0 -50 -1 -94 -2 -98 0 -5 43 -13 97 -20 128 -16 247 -46 360 -92 97 -39 222 -107 271 -146 l29 -24 -56 -56 -56 -57 -50 31 c-305 188 -663 238 -1013 141 -108 -30 -301 -128 -401 -204 -194 -147 -338 -347 -424 -590 l-33 -91 -82 -3 -82 -3 7 33 c25 113 106 308 173 412 136 213 344 401 565 512 90 46 248 98 367 122 l95 19 3 282 2 281 -37 -1 c-21 0 -95 -11 -165 -25z"/>
 <path d="M3483 4051 c-39 -3 -75 -9 -79 -14 -14 -13 33 -259 71 -372 148 -443 469 -792 894 -976 143 -61 325 -108 471 -121 l35 -3 8 88 c5 48 6 95 3 103 -3 8 -19 14 -37 14 -17 0 -75 9 -130 20 -565 115 -1015 587 -1106 1159 -15 101 -19 111 -38 109 -11 -1 -52 -4 -92 -7z"/>
 <path d="M6124 2798 c-145 -117 -301 -208 -471 -276 l-121 -48 30 -93 c29 -91 30 -93 56 -86 64 15 253 99 354 157 107 61 318 213 325 233 1 6 -26 42 -61 81 l-63 72 -49 -40z"/>
 </g>

</svg>